<?xml version="1.0" encoding="utf-8"?>
<!-- Generator: Adobe Illustrator 15.0.0, SVG Export Plug-In . SVG Version: 6.00 Build 0)  -->
<!DOCTYPE svg PUBLIC "-//W3C//DTD SVG 1.1//EN" "http://www.w3.org/Graphics/SVG/1.1/DTD/svg11.dtd">
<svg version="1.1" id="Layer_1" xmlns="http://www.w3.org/2000/svg" xmlns:xlink="http://www.w3.org/1999/xlink" x="0px" y="0px"
	 width="258.666px" height="112px" viewBox="0 0 258.666 112" enable-background="new 0 0 258.666 112" xml:space="preserve">
<polyline fill="none" stroke="#000000" stroke-miterlimit="10" points="-58.639,38.971 -91.565,71.897 -124.49,38.971 "/>
<g>
	<g>
		<path d="M4.334,65.194H4.92c1.361,0,2.57-0.19,3.633-0.571c1.061-0.382,1.953-1.02,2.674-1.915
			c0.721-0.898,1.271-2.094,1.654-3.586c0.381-1.495,0.572-3.354,0.572-5.582V14.742c0-0.928-0.141-1.673-0.418-2.24
			c-0.277-0.566-0.654-1.005-1.127-1.313c-0.477-0.31-1.027-0.513-1.654-0.604c-0.629-0.092-1.293-0.14-1.994-0.14H7.457V7.786
			h18.424v2.659h-0.834c-0.701,0-1.371,0.053-2.01,0.156c-0.639,0.104-1.191,0.315-1.654,0.633c-0.465,0.32-0.834,0.779-1.113,1.375
			c-0.277,0.597-0.418,1.392-0.418,2.381v38.487c0,2.844-0.369,5.21-1.111,7.095c-0.742,1.887-1.764,3.391-3.062,4.514
			c-1.297,1.122-2.828,1.922-4.59,2.396c-1.762,0.473-3.652,0.712-5.674,0.712h-1.08V65.194z"/>
		<path d="M29.932,50.325c0.699,0,1.363-0.046,1.994-0.14c0.627-0.092,1.178-0.282,1.652-0.572c0.475-0.287,0.85-0.716,1.129-1.284
			c0.277-0.565,0.418-1.312,0.418-2.24V26.028c0-0.928-0.141-1.677-0.418-2.243c-0.279-0.566-0.654-1.004-1.129-1.313
			c-0.475-0.308-1.025-0.515-1.652-0.618c-0.631-0.103-1.295-0.154-1.994-0.154h-0.188v-2.658h11.314v26.741
			c0,0.988,0.141,1.782,0.418,2.378c0.279,0.599,0.65,1.057,1.113,1.378c0.465,0.319,1.016,0.53,1.654,0.634
			c0.639,0.102,1.309,0.153,2.008,0.153h0.836v2.659H29.096v-2.659H29.932z M34.227,8.776c0-0.742,0.094-1.36,0.279-1.855
			c0.186-0.494,0.443-0.896,0.771-1.205c0.332-0.308,0.713-0.526,1.146-0.651c0.432-0.121,0.906-0.183,1.42-0.183
			c0.496,0,0.959,0.062,1.391,0.183c0.434,0.125,0.811,0.343,1.131,0.651c0.318,0.309,0.576,0.71,0.771,1.205
			c0.195,0.496,0.295,1.114,0.295,1.855c0,0.741-0.1,1.361-0.295,1.855c-0.195,0.497-0.453,0.898-0.771,1.205
			c-0.32,0.31-0.697,0.53-1.131,0.666c-0.432,0.134-0.895,0.2-1.391,0.2c-0.514,0-0.988-0.066-1.42-0.2
			c-0.434-0.136-0.814-0.356-1.146-0.666c-0.328-0.307-0.586-0.708-0.771-1.205C34.32,10.137,34.227,9.517,34.227,8.776z"/>
		<path d="M66.688,50.325v2.659H49.654v-2.659h0.834c0.721,0,1.381-0.051,1.979-0.153c0.598-0.104,1.113-0.315,1.547-0.634
			c0.432-0.322,0.768-0.779,1.004-1.378c0.236-0.596,0.355-1.39,0.355-2.378V26.028c0-0.928-0.123-1.677-0.371-2.243
			c-0.246-0.566-0.588-1.004-1.02-1.313c-0.434-0.308-0.949-0.515-1.547-0.618c-0.598-0.103-1.246-0.154-1.947-0.154h-0.186v-2.658
			h9.926l0.834,5.132h0.309c0.639-1.176,1.309-2.138,2.01-2.891c0.699-0.753,1.447-1.342,2.24-1.763
			c0.793-0.423,1.629-0.71,2.504-0.866c0.877-0.154,1.811-0.233,2.799-0.233c1.031,0,2.008,0.103,2.938,0.311
			c0.926,0.207,1.787,0.536,2.58,0.99c0.793,0.452,1.504,1.043,2.133,1.776c0.629,0.733,1.139,1.623,1.531,2.676h0.525
			c0.639-1.176,1.33-2.138,2.072-2.891c0.74-0.753,1.527-1.342,2.363-1.763c0.836-0.423,1.711-0.71,2.629-0.866
			c0.916-0.154,1.869-0.233,2.859-0.233c1.607,0,3.049,0.244,4.328,0.729c1.277,0.483,2.359,1.226,3.246,2.225
			c0.885,1,1.564,2.282,2.039,3.85c0.475,1.566,0.711,3.43,0.711,5.594v14.963c0,0.988,0.123,1.782,0.371,2.378
			c0.248,0.599,0.588,1.057,1.02,1.378c0.434,0.319,0.949,0.53,1.547,0.634c0.598,0.102,1.246,0.153,1.947,0.153h0.186v2.659H94.943
			V31.126c0-1.379-0.119-2.605-0.355-3.678c-0.236-1.073-0.617-1.979-1.143-2.721s-1.211-1.305-2.057-1.686
			c-0.844-0.382-1.875-0.571-3.092-0.571c-1.318,0-2.426,0.251-3.322,0.757c-0.896,0.505-1.623,1.189-2.18,2.056
			c-0.557,0.866-0.953,1.866-1.191,3c-0.236,1.133-0.355,2.338-0.355,3.617v13.881c0,0.988,0.123,1.782,0.371,2.378
			c0.248,0.599,0.588,1.057,1.02,1.378c0.434,0.319,0.949,0.53,1.547,0.634c0.6,0.102,1.248,0.153,1.947,0.153h0.186v2.659H75.312
			V31.126c0-1.379-0.117-2.605-0.355-3.678c-0.236-1.073-0.617-1.979-1.143-2.721s-1.213-1.305-2.057-1.686
			c-0.846-0.382-1.875-0.571-3.092-0.571c-1.381,0-2.539,0.278-3.477,0.836c-0.938,0.555-1.695,1.309-2.273,2.256
			c-0.576,0.948-0.988,2.04-1.236,3.276c-0.248,1.236-0.371,2.535-0.371,3.894V46.09c0,0.928,0.139,1.675,0.416,2.24
			c0.279,0.567,0.656,0.997,1.131,1.284c0.473,0.29,1.025,0.479,1.652,0.572c0.629,0.094,1.293,0.14,1.996,0.14H66.688z"/>
		<g>
			<path d="M28.75,106.5v-2.658h0.803c0.723,0,1.396-0.052,2.025-0.155c0.629-0.103,1.18-0.313,1.656-0.632
				c0.471-0.32,0.844-0.779,1.111-1.376c0.268-0.599,0.402-1.392,0.402-2.381V68.507c0-0.989-0.135-1.782-0.402-2.382
				c-0.268-0.596-0.641-1.056-1.111-1.375c-0.477-0.318-1.027-0.529-1.656-0.633s-1.303-0.154-2.025-0.154H28.75v-2.658h18.426
				v2.658h-0.834c-0.701,0-1.367,0.046-1.994,0.138c-0.629,0.095-1.182,0.294-1.654,0.604c-0.475,0.308-0.852,0.745-1.129,1.313
				c-0.279,0.566-0.418,1.312-0.418,2.24v35.089h12.49c0.947,0,1.756-0.17,2.426-0.51c0.67-0.342,1.221-0.782,1.654-1.329
				s0.768-1.16,1.004-1.841c0.238-0.68,0.396-1.36,0.48-2.04l0.617-4.729h3.309L62.693,106.5H28.75z"/>
			<path d="M98.832,89.467c0,5.955-1.262,10.386-3.785,13.293c-2.525,2.907-6.221,4.358-11.084,4.358
				c-2.287,0-4.338-0.36-6.152-1.082c-1.812-0.721-3.354-1.813-4.621-3.276c-1.268-1.462-2.236-3.304-2.906-5.52
				c-0.668-2.213-1.004-4.806-1.004-7.773c0-5.914,1.252-10.315,3.756-13.199c2.504-2.886,6.207-4.328,11.113-4.328
				c2.287,0,4.338,0.354,6.152,1.064c1.814,0.712,3.354,1.794,4.621,3.247s2.236,3.276,2.906,5.472
				C98.498,83.917,98.832,86.498,98.832,89.467z M75.4,89.467c0,2.349,0.154,4.42,0.463,6.213c0.311,1.792,0.811,3.292,1.5,4.5
				c0.689,1.205,1.586,2.117,2.689,2.735c1.102,0.618,2.447,0.927,4.035,0.927c1.586,0,2.926-0.309,4.018-0.927
				s1.979-1.53,2.658-2.735c0.68-1.208,1.17-2.708,1.469-4.5c0.299-1.793,0.449-3.864,0.449-6.213s-0.156-4.411-0.463-6.183
				c-0.311-1.773-0.805-3.252-1.486-4.436c-0.68-1.186-1.57-2.076-2.674-2.677c-1.102-0.596-2.447-0.895-4.033-0.895
				s-2.928,0.299-4.02,0.895c-1.092,0.601-1.979,1.491-2.658,2.677c-0.68,1.184-1.174,2.662-1.484,4.436
				C75.555,85.056,75.4,87.119,75.4,89.467z"/>
			<path d="M135.684,99.605c0,0.929,0.139,1.677,0.418,2.244c0.277,0.567,0.652,0.994,1.127,1.28c0.475,0.29,1.025,0.48,1.654,0.575
				c0.629,0.091,1.293,0.138,1.994,0.138h0.186v2.658h-10.049l-0.834-5.131h-0.309c-0.639,1.196-1.344,2.164-2.117,2.906
				s-1.592,1.325-2.459,1.744c-0.865,0.426-1.771,0.713-2.721,0.866c-0.947,0.156-1.936,0.232-2.967,0.232
				c-1.67,0-3.152-0.237-4.451-0.71c-1.299-0.475-2.393-1.217-3.277-2.227c-0.887-1.008-1.561-2.299-2.025-3.864
				c-0.463-1.565-0.695-3.431-0.695-5.595V79.544c0-0.928-0.139-1.675-0.418-2.241c-0.277-0.568-0.654-1.006-1.127-1.315
				c-0.475-0.309-1.027-0.515-1.656-0.618c-0.627-0.104-1.293-0.154-1.992-0.154h-0.186v-2.657h11.346v21.854
				c0,1.382,0.107,2.607,0.324,3.681c0.217,1.072,0.576,1.977,1.082,2.72c0.506,0.742,1.186,1.302,2.041,1.684
				c0.854,0.383,1.922,0.574,3.199,0.574c1.402,0,2.602-0.248,3.602-0.744c0.998-0.494,1.824-1.189,2.473-2.085
				c0.65-0.898,1.129-1.974,1.439-3.233c0.309-1.255,0.463-2.646,0.463-4.17V79.792c0-0.991-0.139-1.79-0.418-2.398
				c-0.277-0.607-0.648-1.072-1.113-1.391c-0.463-0.319-1.01-0.53-1.639-0.634s-1.305-0.154-2.025-0.154h-0.184v-2.657h11.314
				V99.605z"/>
			<path d="M174.541,99.546c0,0.925,0.141,1.674,0.42,2.24c0.277,0.567,0.654,1.004,1.127,1.313c0.475,0.31,1.025,0.51,1.654,0.604
				c0.629,0.091,1.293,0.138,1.994,0.138h0.525v2.658h-10.729l-0.678-5.688h-0.248c-0.475,0.97-1.016,1.84-1.623,2.611
				c-0.609,0.772-1.303,1.432-2.086,1.979c-0.783,0.546-1.67,0.968-2.66,1.266c-0.988,0.301-2.102,0.449-3.338,0.449
				c-2.082,0-3.926-0.346-5.533-1.036c-1.609-0.688-2.959-1.752-4.051-3.185c-1.094-1.431-1.916-3.248-2.473-5.454
				c-0.557-2.205-0.836-4.824-0.836-7.853c0-3.05,0.279-5.689,0.836-7.914c0.557-2.228,1.379-4.06,2.473-5.505
				c1.092-1.441,2.441-2.509,4.051-3.196c1.607-0.692,3.451-1.036,5.533-1.036c1.215,0,2.318,0.133,3.307,0.401
				c0.99,0.267,1.881,0.647,2.676,1.145c0.793,0.492,1.498,1.08,2.117,1.76c0.617,0.679,1.154,1.433,1.607,2.257h0.369
				c-0.061-1.03-0.121-1.997-0.184-2.906c-0.043-0.783-0.084-1.56-0.125-2.333c-0.041-0.774-0.061-1.346-0.061-1.715v-5.194
				c0-0.927-0.141-1.676-0.418-2.242c-0.279-0.564-0.654-1.003-1.129-1.313c-0.473-0.31-1.025-0.51-1.652-0.601
				c-0.631-0.096-1.293-0.141-1.994-0.141h-0.527v-2.659h11.654V99.546z M159.982,103.071c1.648,0,3.023-0.273,4.127-0.82
				c1.102-0.546,1.988-1.375,2.658-2.489c0.67-1.113,1.143-2.514,1.422-4.204c0.277-1.688,0.418-3.68,0.418-5.966
				c0-2.206-0.141-4.154-0.418-5.844c-0.279-1.689-0.752-3.106-1.422-4.249c-0.67-1.146-1.561-2.017-2.674-2.613
				c-1.113-0.598-2.504-0.897-4.174-0.897c-1.381,0-2.566,0.3-3.555,0.897c-0.99,0.597-1.799,1.474-2.428,2.626
				c-0.629,1.156-1.086,2.583-1.375,4.282c-0.289,1.701-0.434,3.653-0.434,5.859c0,4.493,0.607,7.853,1.824,10.077
				C155.168,101.957,157.18,103.071,159.982,103.071z"/>
			<path d="M199.553,107.119c-2.287,0-4.344-0.386-6.168-1.16c-1.822-0.771-3.363-1.901-4.621-3.385
				c-1.258-1.481-2.221-3.3-2.891-5.455c-0.67-2.152-1.006-4.601-1.006-7.343c0-5.916,1.217-10.365,3.648-13.354
				s5.895-4.481,10.389-4.481c2.039,0,3.873,0.318,5.502,0.957c1.627,0.639,3.008,1.591,4.141,2.858
				c1.135,1.269,2.006,2.845,2.613,4.731c0.609,1.886,0.912,4.076,0.912,6.568v2.906h-21.084c0.041,2.309,0.273,4.292,0.695,5.95
				c0.424,1.66,1.031,3.025,1.824,4.098c0.795,1.071,1.768,1.86,2.922,2.364c1.154,0.506,2.484,0.756,3.988,0.756
				c1.094,0,2.107-0.121,3.045-0.369c0.939-0.248,1.789-0.576,2.551-0.989c0.764-0.411,1.438-0.882,2.023-1.407
				c0.59-0.525,1.068-1.077,1.439-1.653c0.287,0.123,0.561,0.381,0.818,0.773c0.258,0.391,0.387,0.854,0.387,1.392
				c0,0.638-0.227,1.322-0.68,2.055c-0.455,0.732-1.145,1.407-2.072,2.024c-0.926,0.618-2.086,1.136-3.477,1.546
				C203.061,106.915,201.428,107.119,199.553,107.119z M198.779,75.34c-2.35,0-4.158,0.952-5.426,2.858
				c-1.266,1.907-2.014,4.695-2.24,8.362h14.559c0-1.67-0.123-3.195-0.369-4.574c-0.248-1.382-0.639-2.567-1.174-3.557
				c-0.537-0.989-1.242-1.752-2.119-2.287C201.135,75.607,200.057,75.34,198.779,75.34z"/>
			<path d="M234.053,103.842v2.658H217.02v-2.658h0.525c0.723,0,1.396-0.052,2.025-0.155c0.627-0.103,1.174-0.313,1.639-0.632
				c0.465-0.32,0.834-0.779,1.113-1.376c0.277-0.599,0.416-1.392,0.416-2.381V79.544c0-0.928-0.139-1.675-0.416-2.241
				c-0.279-0.568-0.654-1.006-1.129-1.315c-0.475-0.309-1.025-0.515-1.654-0.618s-1.295-0.154-1.994-0.154h-0.186v-2.657h10.232
				l0.834,5.13h0.311c0.658-1.175,1.355-2.137,2.088-2.89c0.729-0.754,1.502-1.339,2.316-1.762c0.814-0.422,1.682-0.711,2.598-0.864
				c0.916-0.157,1.881-0.232,2.889-0.232c1.672,0,3.16,0.24,4.469,0.725s2.422,1.228,3.338,2.226
				c0.918,1.001,1.617,2.285,2.104,3.851c0.484,1.565,0.727,3.43,0.727,5.595v14.963c0,0.989,0.117,1.782,0.354,2.381
				c0.238,0.597,0.574,1.056,1.006,1.376c0.434,0.318,0.947,0.529,1.547,0.632c0.596,0.104,1.246,0.155,1.947,0.155h0.215v2.658
				h-11.035V84.646c0-1.384-0.123-2.609-0.371-3.681c-0.248-1.069-0.645-1.979-1.191-2.722c-0.545-0.741-1.262-1.302-2.146-1.685
				c-0.887-0.379-1.969-0.571-3.246-0.571c-1.443,0-2.656,0.28-3.633,0.836c-0.979,0.555-1.768,1.309-2.365,2.256
				c-0.6,0.949-1.025,2.042-1.283,3.276c-0.258,1.238-0.387,2.535-0.387,3.896v13.353c0,0.929,0.139,1.677,0.418,2.244
				c0.277,0.567,0.652,0.994,1.129,1.28c0.473,0.29,1.023,0.48,1.654,0.575c0.627,0.091,1.291,0.138,1.992,0.138H234.053z"/>
		</g>
	</g>
</g>
</svg>
